<?xml version="1.0" encoding="UTF-8"?>
<svg id="Camada_2" data-name="Camada 2" xmlns="http://www.w3.org/2000/svg" xmlns:xlink="http://www.w3.org/1999/xlink" viewBox="0 0 1548.49 886.98">
  <defs>
    <style>
      .cls-1 {
        clip-path: url(#clippath-4);
      }

      .cls-2 {
        fill: url(#Gradiente_sem_nome_11-5);
      }

      .cls-3 {
        fill: url(#Gradiente_sem_nome_11);
      }

      .cls-4 {
        clip-path: url(#clippath-1);
      }

      .cls-5 {
        clip-path: url(#clippath-3);
      }

      .cls-6 {
        clip-rule: evenodd;
        fill: none;
      }

      .cls-7 {
        fill: url(#Gradiente_sem_nome_11-2);
      }

      .cls-8 {
        fill: url(#Gradiente_sem_nome_11-3);
      }

      .cls-9 {
        fill: #2a3332;
        fill-rule: evenodd;
      }

      .cls-10 {
        clip-path: url(#clippath-2);
      }

      .cls-11 {
        fill: url(#Gradiente_sem_nome_11-4);
      }

      .cls-12 {
        clip-path: url(#clippath);
      }
    </style>
    <clipPath id="clippath">
      <path class="cls-6" d="M1137.05,61.95c0,19.55,7,30.33,17.39,43.57,5.92,7.54,18.94,14.09,28.12,16.85,19.27,5.78,43.78-.2,58.18-13.68,9.87-9.23,20.22-26.26,20.22-40.74,0-12.99-.09-21.9-6.83-34.14-3.96-7.19-8.56-13.13-14.69-18.29-10.79-9.06-26.37-15.52-40.44-15.52-15.12,0-32.32,7.83-43.22,18.73-5.64,5.64-9.28,10.48-12.92,18.05-3.15,6.54-5.81,15.94-5.81,25.16"/>
    </clipPath>
    <linearGradient id="Gradiente_sem_nome_11" data-name="Gradiente sem nome 11" x1="1229.95" y1="8.32" x2="1169.58" y2="117.1" gradientUnits="userSpaceOnUse">
      <stop offset="0" stop-color="#00e0d1"/>
      <stop offset="1" stop-color="#00c27b"/>
    </linearGradient>
    <clipPath id="clippath-1">
      <path class="cls-6" d="M245.99,851.3c72.1,80.1,204.17,14.85,186.35-92.01-7.36-44.13-46.57-81.61-91.02-86.38-49.06-4.48-77.44,10.43-115.81-33.05-49.42-56.01-2.25-134.24-67.85-162.39-43.92-18.85-94.28,7.59-101.9,54.43-6.12,37.57,17.78,72.03,54.86,81.08,38.04,9.29,62.19,3.05,91.29,39.12,30.35,37.62,26.51,65.01,18.75,107.96-7.08,39.2-1.24,60.57,25.33,91.24"/>
    </clipPath>
    <linearGradient id="Gradiente_sem_nome_11-2" data-name="Gradiente sem nome 11" x1="361.37" y1="513.64" x2="149.22" y2="858.85" xlink:href="#Gradiente_sem_nome_11"/>
    <clipPath id="clippath-2">
      <path class="cls-6" d="M249.16,579.97c-.16,11.8,1.41,21.06,10.71,29.83,24.82,23.4,61.29,3.48,61.67-25.22.06-4.86-1.44-10.54-3.02-14.49-4.83-12.06-18.29-22.32-30.58-22.48-10.57-.14-19.95,2.09-28,10.11-4.43,4.42-10.67,13.76-10.78,22.25"/>
    </clipPath>
    <linearGradient id="Gradiente_sem_nome_11-3" data-name="Gradiente sem nome 11" x1="306.06" y1="553.93" x2="270.14" y2="616.92" xlink:href="#Gradiente_sem_nome_11"/>
    <clipPath id="clippath-3">
      <path class="cls-6" d="M7.98,637.5c-.12,9.25,1.88,15.31,8.12,21.42,19.45,19.05,52.26.64,45.75-25.65-.79-3.2-.52-2.35-1.63-4.93-3.71-8.58-13.25-16.08-22.84-16.21-5.43-.07-9.18-.03-14.3,2.72-7.6,4.08-14.97,12.83-15.1,22.65"/>
    </clipPath>
    <linearGradient id="Gradiente_sem_nome_11-4" data-name="Gradiente sem nome 11" x1="53.35" y1="618.23" x2="26.32" y2="665.77" xlink:href="#Gradiente_sem_nome_11"/>
    <clipPath id="clippath-4">
      <path class="cls-6" d="M28.17,379.48c-.2,15.08,3.06,24.96,13.24,34.93,31.72,31.07,85.23,1.04,74.61-41.83-1.29-5.23-.85-3.84-2.66-8.04-6.04-13.98-21.6-26.22-37.25-26.43-8.86-.12-14.97-.05-23.32,4.43-12.39,6.65-24.4,20.92-24.62,36.93"/>
    </clipPath>
    <linearGradient id="Gradiente_sem_nome_11-5" data-name="Gradiente sem nome 11" x1="102.14" y1="348.07" x2="58.06" y2="425.58" xlink:href="#Gradiente_sem_nome_11"/>
  </defs>
  <g id="Camada_1-2" data-name="Camada 1">
    <path class="cls-9" d="M219.73,272.8c0,36.39-.03,42.6,5.72,76.22l8.61,36.35c2.99,9.38,6.1,18.94,10.48,27.49,6.4,12.52,11.8,25.64,19.57,37.39l9.86,15.12c12.66,16.87,23.74,28.98,38.93,44.01,15.45,15.29,39.09,30.98,58.39,40.54,24.14,11.96,60.47,26.66,87.24,28.67,5.99.45,8.51,1.97,15.02,1.97h57.96c10.73,0,32.65-4.98,44.4-7.56,28.8-6.32,55.86-18.47,81.68-32.24,2.39-1.28,3.64-1.98,5.83-3.16,14.74-7.99,28.19-18.28,41.4-28.55,3.37-2.62,17.55-13.5,17.55-17.42l-1-233.83h-209.84l-.49,101.92c0,1.32.28,1.42.49,4,11.32,2.4,69.54,1.2,85.95.98,4.62-.06,9.97-1.34,9.97,3.02v71.95c0,4.77-10.69,7.1-14.15,8.83l-16.82,7.16c-1.79.66-4.18,1.34-5.99,2.01-14.12,5.22-30.81,7.63-46.01,8.95-26.53,2.31-53.62-.68-78.48-10.4-1.77-.69-2.38-.87-3.67-1.32-11.12-3.92-21.56-10.1-31.16-16.8-2.55-1.78-3.39-2.71-5.58-4.42-2.07-1.62-3.97-3.09-6.15-4.85-25.72-20.71-42.53-53.65-50.96-84.94-5.28-19.63-4.18-29.91-6.58-47.38-.99-7.2,1.02-32.34,2.13-39.29,1.93-12.12,4.86-22.19,8.32-33.65,14.68-48.62,58.48-91.39,107.98-102.86,39.2-9.08,79.82-5.35,115.99,9.33,25.69,10.42,34.32,22.45,52.09,31.85,7.21-4.83,37.72-40.23,47.23-49.7l29.71-30.24c-2.57-11.02-16.83-18.56-25.12-24.84-16.46-12.46-35.46-21.93-54.17-30.77l-37.35-13.61-27.68-6.3c-35.96-6.8-74.2-5.6-110.22-.14-4.16.63-9.5,1.87-14.19,2.8l-32.79,9.18c-2.66.94-4.05,1.24-6.71,2.29-2.9,1.15-3.84,1.47-6.54,2.45-25.37,9.18-61.38,32.2-79.19,48.71l-17.51,17.46c-3.11,3.53-5.03,4.98-8.11,8.88-2.52,3.19-5.13,5.98-7.54,9.45-2.58,3.73-4.73,6.21-7.13,9.85-4.87,7.37-8.44,13.27-13.02,20.96-9.35,15.71-16.55,33.06-22.44,50.51l-3.22,9.77c-.64,2.14-1.44,4.99-2.01,6.99-5.16,18.22-10.73,49.51-10.73,67.21"/>
    <path class="cls-9" d="M773.32,224.83c0,21.2-2.47,22.12,7.24,31.73l37.17,34.78c.86.77,1.92,1.81,2.58,2.41l5.23,4.77c1.98,1.99,2.98,2.96,5.09,4.9.15.14.37.34.52.48l34.86,32.09c1.89,1.75,3.14,3.15,4.98,5.01,1.78,1.8,2.63,2.68,4.61,4.38l2.18,1.81c.16.13.39.32.54.46l12.75,12.23c4.2,3.35,6.09,5.3,9.88,9.11l10.51,9.48c4.92,4.95,14.03,16.6,21.73,17.24,0-5.78.4-8.84.85-13.14.64-6.06-1.91-10.81,3.13-11.86,11.28-2.34,52.65,5.17,79.65-8.29,13.38-6.67,20.91-16.95,27.62-30.33,3.76-7.5,10.09-23.42,11.5-32.47,2.98-19.18,2.16-9.59,2.16-33.82,0-6.04-11.13-4-16.99-4h-107.92c-15.3,0-26.98-1-41.97-1v-54.96c0-4.28.79-3.82,1.56-7.44.75-3.53.49-5.68,1.3-8.7,5.23-19.63,9-36.52,29.95-47.99,28.6-15.65,81.61-7.83,113.08-7.83h36.97c6.08,0,7.29-1,12.99-1,2.46-10.57,1-90.56,1-107.92,0-7.55-4.05-5.53-10.83-6.16-4.37-.4-10.2-1.73-15.12-1.87l-109.95-1.97c-8.85,0-13.39,1.89-21.99,1.99-4.63.06-6.43.58-10.68,1.31-23.5,4.01-22.92,2.73-45.94,15.01-16.69,8.9-43.17,30.97-52.88,44.04-6.03,8.11-15.12,19.96-19.71,28.25-14.57,26.28-19.65,44.67-24.66,73.27-1.02,5.8-1.48,16.03-1.94,22.05-.66,8.57-1.06,14.95-1.06,23.92"/>
    <path class="cls-9" d="M1135.06,513.62l.99,45.98c-.04,6.7,1.01,9.15,1.01,14.98h115.91c2.3,0,3-.7,3-3V163.88c0-2.7-.48-2.76-1-5-4.05.34-6.94,2.46-10,3.99l-28.97,16c-6.37,3.45-11.75,7.05-18.3,10.68l-55.39,33.55c-8.4,6.21-6.26,4.31-6.26,23.72l-1,266.8Z"/>
    <path class="cls-9" d="M859.26,575.57c30.2,0,31.1,2.73,31.05-7.92l-1.16-161.86c-1.15-6.92-19.24-20.87-24.16-25.81l-44.97-41.96c-2.7-2.6-3.83-4.06-6.73-6.27-7.57-5.78-26.83-25.31-36.05-31.9-3.33-2.38-.4-1.69-4.92-2.07v135.9c0,15.8,1,28.67,1,44.97,0,29.39-1.38,62.11-.13,91.06.23,5.29.7,4.95,6.01,4.98,9.1.07,27.86-.76,34.94.03,13.15,1.48,30.32.85,45.11.85"/>
    <g class="cls-12">
      <rect class="cls-3" x="1137.05" width="123.91" height="128.15"/>
    </g>
    <g class="cls-4">
      <rect class="cls-7" x="49.65" y="458.62" width="400.52" height="472.78"/>
    </g>
    <path class="cls-9" d="M734.96,719.19c-2.65-1.94-.66-1.33-.66-5.28v-27.07c0-2.03-1.93-2.64-3.96-2.64-9.45,0-43.48-.9-50.19.66v194.14c6.67,1.55,39.55.66,48.86.66,2.28,0,2.56-.49,4.62-.66,1.86-7.99.26-78.51.64-93.13.1-3.79.98-6.23,1.38-10.5.72-7.61,6.21-20.09,10.23-25.43,3.24-4.3,8.14-8.36,13.05-10.72l2.4-.9c.16-.06.33-.12.49-.18.15-.06.33-.12.48-.18l.95-.37c14.96-5.33,38.22-2.8,48.6,11.04,2.72,3.63,4.4,6.33,6.04,10.47l1.94,5.32c5.71,17.59,4.27,48.23,4.27,67.04v47.54c6.69,1.56,40.14.66,49.53.66,2.03,0,3.96-.61,3.96-2.64v-95.09c0-7.74-.58-13.21-.63-20.5-.06-8.19-4.63-26.99-7.47-34.79-.41-1.14-.96-2.14-1.61-3.67-10.92-25.83-34.72-39.43-62.27-39.43-13.49,0-18.67-.76-31.68,3.97-1.43.52-.85.32-1.91.73l-.94.38c-.64.25-.83.31-1.42.56-11.75,4.96-21.78,13.37-29.88,22.95-1.56,1.85-4.23,4.84-4.83,7.06M901.36,781.92c0,14.83,4.51,34.76,11.56,47.87,8.96,16.67,17.25,24.93,32.29,35.72l34.64,14.23c15.81,3.12,35.82,4.31,51.38.34,2.44-.62,5.13-1.11,7.01-1.58,6.02-1.48,14.67-4.8,19.74-7.33,4.51-2.26,7.79-3.94,11.67-6.82,7.49-5.55,7.77-5.28,14.8-12.27,4.6-4.57,17.51-21.23,17.66-27.91l-49.53-21.13c-1.1,1.05-.82.75-1.77,2.19-8.84,13.43-18.86,20.01-35.02,22.43-11.48,1.72-15.94,1.32-27.42-2.01-12.25-3.55-21.86-12.16-27.48-23.37-2.38-4.74-2.74-6.02-2.74-10.47h149.24c3.82,0,4.62,1.88,4.62-3.96l-2.8-23.61-4.13-15.68c-4.4-13.33-12.03-27.45-21.62-37.81-1.86-2.01-4.56-4.8-6.73-6.48l-7.37-5.84c-4.89-3.53-11.13-7.38-16.78-9.63-14.9-5.93-27.74-8.33-43.59-9.24-5.88-.34-18.33,1.2-24.34,2.08-14.16,2.08-26.55,7.77-38.19,14.64-4.59,2.71-11.17,7.74-14.9,11.51-10.65,10.77-15.5,17.68-21.54,31.28l-3.64,9.56c-1.09,3.26-1.95,6.96-2.66,10.54l-2.36,22.73ZM1000.41,734.37c14.64,0,22.08-.59,35.4,8.18,5.15,3.39,11.95,11.08,13.47,17.57h-85.18c3.24-13.89,22.99-25.75,36.32-25.75ZM1391.99,614.19c0,11.34-.96,63.03.66,70h-19.15c-4.37,0-16.51-1.61-16.51,2.64v48.2c0,1.55,1.1,2.64,2.64,2.64h32.36c0,26.44-1.43,55.22,5.6,79.58.68,2.34.5,2.4,1.37,4.58l6.02,13.79c10.6,21.41,30.62,36.46,53.21,43.2,13.16,3.92,23.56,4.65,37.51,3.5,3.23-.27,6.41.25,9.62-.29,2.4-.4,6.06-.92,8.41-1.5,10.29-2.52,11.51-2.52,22.44-7.93,2.88-1.43,10.88-6.17,12.32-8.15-.68-2.9-3.99-8.63-5.5-11.67l-14.41-28.51c-1.04-2.02-1.89-4.07-3.86-5.39-1.77.47-5.85,3.55-11.62,5.55-8.2,2.84-21.87,4.65-30.8,2.54-16.47-3.9-26.87-12.38-32.37-29.04l-1.89-7.35c-2.9-11.02-1.89-40.45-1.89-52.92h61.41c1.55,0,2.64-1.1,2.64-2.64v-48.2c0-2.03-1.93-2.64-3.96-2.64h-60.09v-71.32c0-2.55-2.1-2.06-4.57-2.04l-48.92.06c-.35,1.48-.66,1.52-.66,3.3ZM1136.44,769.37c0,17.58-1.07,25.86,3.62,41.95,3.05,10.46,5.02,14.94,10.28,24.06,2.91,5.04,6.88,9.32,9.88,13.23,3.28,4.28,7.76,7.81,11.73,11.39,12.77,11.51,42.82,22.29,58.93,22.29,23.09,0,25.25.67,46.42-5.08,2.1-.57,1.7-.32,3.59-1.03,13.43-5.04,23.25-11.08,33.66-19.83,5.84-4.91,21.82-24.58,21.98-32.16l-24.44-10.56c-1.96-.88-3.99-1.63-6.05-2.54-1.01-.45-2.27-.91-3.28-1.34l-15.76-6.69c-1.4,1.02-4.32,6.33-7.66,10.17l-15.63,10.78c-15.74,5.92-32.01,6.8-47.48-1.02-6.1-3.08-5.51-2.72-11.21-7.28-9.45-7.56-15.09-22.91-15.09-35.76,0-8.33,3.89-19.06,8.31-25.37,1.51-2.16,3.57-4.71,5.38-6.51,7.25-7.26,21.09-13.68,31.88-13.68,16.35,0,25.79.16,39.92,10.92l7.63,8.22c1.22,1.69,2.28,3.38,3.3,5.29,3.97-.33,31.15-13.06,37.73-15.76,15.79-6.47,14.95-3.71,6.07-18.8-1.51-2.56-2.17-3.14-3.9-5.35-4.66-5.95-8.11-9.85-13.98-15.07-1.64-1.46-3.43-2.62-5.25-3.99-5.32-4.01-12.34-7.89-18.49-10.56-4.67-2.03-9.26-3.58-14.13-5.02-19.35-5.7-35.82-5.33-55.29-2.61-11.4,1.59-25.9,6.98-35.89,12.97-5.49,3.29-9.39,6.21-14.2,10.24-7.13,5.98-15.62,16.24-20.13,24.77-3.44,6.51-6.19,11.72-8.33,19.41-.92,3.3-1.65,5.92-2.39,9.5-.37,1.79-.4,3.38-.78,5.16-.55,2.58-.93,2.7-.93,5.68ZM511.76,719.19v-27.74c.04-3.15.97-7.26-1.98-7.26-9.59,0-44.77-.91-51.51.66v194.14c2.06.17,2.35.66,4.62.66h46.88c3.22,0,1.98-6.82,1.98-9.9-.02-25.85-1.47-73.46,2.16-94.25.57-3.24,1.46-6.65,2.31-9.57,3.67-12.53,11.09-22.68,23.25-27.6l2.37-.93c10.88-3.62,26.33-3.01,35.85,1.7,12.99,6.43,19.42,17.63,22.07,32.08.26,1.41.87,3.25,1.05,4.9.22,2.06.15,3.45.45,5.49,2.12,14.33.96,60.02.96,77.62,0,3.96.02,7.93,0,11.89-.03,4.91-1.28,8.58,3.96,8.58,9.38,0,42.84.9,49.53-.66,0-13.25.69-103.94-.6-114.95-1.95-16.53-2.21-25-9.01-41.17-2.79-6.63-8.35-15.39-13.32-20.36-4.26-4.26-12.03-10-17.99-12.38-.19-.08-.75-.29-.95-.37-20.47-8.12-49.7-9.86-70.42,1.66-2.64,1.47-4.86,2.68-7.49,4.39-5.67,3.68-5.74,4.31-9.79,8.04-4.16,3.84-7.99,7.45-11.31,12.46-1.14,1.72-.94,2.32-3.06,2.89Z"/>
    <path class="cls-9" d="M0,779.94c0,11.82,1.24,22.93,4.69,33.61l3.32,9.23c4.54,11.4,11.29,20.56,19.47,29.39,9.83,10.62,23.59,18.66,37.12,23.63,1.52.56,2.35.87,4.4,1.55,21.69,7.21,46.45,6.41,68.41,1.05,13.15-3.21,25.38-9.98,35.79-17.7,2.25-1.67,3.05-2.68,4.99-4.25,7.07-5.69,20.49-22.75,22.55-31.6-2.38-1.6-2.81-1.62-5.76-2.83l-37.25-16.23c-2.27-.97-4.04-2.16-6.51-2.73-2.8,2.43-3.73,5.92-7.75,10.08-4.42,4.59-4.8,4.57-9.95,7.88-7.64,4.92-19.98,7.79-29.85,7.79-3.81,0-6.7-.83-10.47-1.41-27.43-4.26-47.74-33.8-35.29-64.82,4.32-10.77,14.19-20.11,25.09-24.44.15-.06.32-.13.47-.19,15.2-5.92,38.44-5.2,51.91,4.35,1.48,1.05,3,2.2,4.47,3.46,6.57,5.61,4.88,4.35,10.71,13.06,2.77-.23,7.17-2.35,9.68-3.52l13.75-6.06c1.68-.78,2.76-1.31,4.58-2.03,3.69-1.46,6.42-2.82,9.73-4.14,3.32-1.32,6-2.74,9.18-4.03,3.85-1.56,4.04-1.46.63-7.96-9.78-18.64-25.77-33.23-45.48-41.68l-4.71-1.89c-9.02-3.64-24.18-7.29-33.69-7.25-7.27.03-12.88-1.63-24.72.34-12.25,2.04-18.77,3.5-29.32,7.66l-.94.38c-.64.25-.83.31-1.42.56l-9.23,4.63c-30.42,17.21-48.58,49.95-48.58,86.13"/>
    <g class="cls-10">
      <rect class="cls-8" x="249" y="547.47" width="72.6" height="85.72"/>
    </g>
    <g class="cls-5">
      <rect class="cls-11" x="7.86" y="612.07" width="60.51" height="65.91"/>
    </g>
    <g class="cls-1">
      <rect class="cls-2" x="27.97" y="338" width="98.67" height="107.49"/>
    </g>
  </g>
</svg>